<svg width="476" height="206" viewBox="0 0 476 206" fill="none" xmlns="http://www.w3.org/2000/svg">
<path d="M3.216 163.096C3.056 162.616 2.944 162.232 2.88 161.944C2.816 161.624 2.816 161.368 2.88 161.176C2.976 160.952 3.104 160.76 3.264 160.6C3.456 160.44 3.712 160.28 4.032 160.12L8.592 158.008C9.392 157.688 10.016 157.736 10.464 158.152C10.912 158.536 11.264 159.016 11.52 159.592C12 160.84 12.752 161.944 13.776 162.904C14.832 163.832 15.968 164.6 17.184 165.208C18.4 165.816 19.632 166.28 20.88 166.6C22.128 166.888 23.2 167.032 24.096 167.032C25.312 167.032 26.656 166.856 28.128 166.504C29.6 166.152 30.976 165.608 32.256 164.872C33.568 164.136 34.656 163.192 35.52 162.04C36.416 160.856 36.864 159.464 36.864 157.864C36.864 156.136 36.448 154.744 35.616 153.688C34.784 152.632 33.696 151.768 32.352 151.096C31.04 150.392 29.552 149.832 27.888 149.416C26.256 149 24.624 148.568 22.992 148.12C20.112 147.352 17.536 146.424 15.264 145.336C13.024 144.216 11.104 142.936 9.504 141.496C7.936 140.024 6.736 138.36 5.904 136.504C5.072 134.616 4.656 132.504 4.656 130.168C4.656 127.608 5.152 125.272 6.144 123.16C7.136 121.048 8.512 119.24 10.272 117.736C12.064 116.232 14.192 115.064 16.656 114.232C19.152 113.4 21.904 112.984 24.912 112.984C27.376 112.984 29.488 113.208 31.248 113.656C33.04 114.104 34.624 114.776 36 115.672C37.376 116.536 38.64 117.624 39.792 118.936C40.944 120.216 42.144 121.704 43.392 123.4C43.776 124.04 43.984 124.6 44.016 125.08C44.048 125.528 43.76 125.976 43.152 126.424L39.408 129.256C38.672 129.672 38.112 129.784 37.728 129.592C37.344 129.4 36.928 129.032 36.48 128.488C35.744 127.624 35.024 126.792 34.32 125.992C33.616 125.192 32.816 124.488 31.92 123.88C31.024 123.24 30 122.744 28.848 122.392C27.728 122.008 26.384 121.816 24.816 121.816C23.408 121.816 22.048 121.976 20.736 122.296C19.424 122.616 18.24 123.128 17.184 123.832C16.16 124.536 15.328 125.432 14.688 126.52C14.08 127.576 13.776 128.84 13.776 130.312C13.776 131.432 14.16 132.472 14.928 133.432C15.696 134.36 16.672 135.208 17.856 135.976C19.04 136.744 20.336 137.4 21.744 137.944C23.152 138.488 24.512 138.92 25.824 139.24C28.864 139.944 31.632 140.84 34.128 141.928C36.656 143.016 38.816 144.312 40.608 145.816C42.4 147.32 43.792 149.08 44.784 151.096C45.776 153.08 46.272 155.336 46.272 157.864C46.272 160.648 45.712 163.16 44.592 165.4C43.504 167.608 41.968 169.496 39.984 171.064C38.032 172.6 35.696 173.784 32.976 174.616C30.256 175.448 27.296 175.864 24.096 175.864C22.08 175.864 20 175.608 17.856 175.096C15.744 174.584 13.744 173.8 11.856 172.744C9.968 171.688 8.256 170.36 6.72 168.76C5.184 167.16 4.016 165.272 3.216 163.096ZM107.621 166.888C104.869 169.704 101.669 171.928 98.0212 173.56C94.3733 175.16 90.4213 175.96 86.1653 175.96C83.3173 175.96 80.5493 175.592 77.8613 174.856C75.2053 174.088 72.7093 173.016 70.3733 171.64C68.0373 170.232 65.9093 168.568 63.9893 166.648C62.0693 164.728 60.4053 162.6 58.9973 160.264C57.6213 157.896 56.5493 155.384 55.7812 152.728C55.0453 150.04 54.6773 147.256 54.6773 144.376C54.6773 141.496 55.0453 138.728 55.7812 136.072C56.5493 133.384 57.6213 130.872 58.9973 128.536C60.4053 126.2 62.0693 124.072 63.9893 122.152C65.9093 120.232 68.0373 118.584 70.3733 117.208C72.7093 115.832 75.2053 114.776 77.8613 114.04C80.5173 113.272 83.2853 112.888 86.1653 112.888C90.4213 112.888 94.3733 113.704 98.0212 115.336C101.669 116.936 104.869 119.144 107.621 121.96V116.104C107.621 114.696 108.325 113.992 109.733 113.992H114.677C116.181 113.992 116.933 114.696 116.933 116.104V172.888C116.933 173.528 116.725 174.04 116.309 174.424C115.893 174.808 115.397 175 114.821 175H109.829C109.157 175 108.613 174.792 108.197 174.376C107.813 173.96 107.621 173.464 107.621 172.888V166.888ZM108.101 144.376C108.101 141.368 107.525 138.504 106.373 135.784C105.221 133.032 103.653 130.632 101.669 128.584C99.6853 126.536 97.3493 124.904 94.6613 123.688C92.0053 122.472 89.1733 121.864 86.1653 121.864C83.1573 121.864 80.3253 122.472 77.6693 123.688C75.0453 124.904 72.7413 126.536 70.7573 128.584C68.8053 130.632 67.2533 133.032 66.1013 135.784C64.9813 138.504 64.4213 141.368 64.4213 144.376C64.4213 147.352 64.9813 150.216 66.1013 152.968C67.2533 155.72 68.8053 158.152 70.7573 160.264C72.7413 162.344 75.0453 164.008 77.6693 165.256C80.3253 166.504 83.1573 167.128 86.1653 167.128C89.1733 167.128 92.0053 166.504 94.6613 165.256C97.3493 164.008 99.6853 162.344 101.669 160.264C103.653 158.152 105.221 155.72 106.373 152.968C107.525 150.216 108.101 147.352 108.101 144.376ZM139.946 122.104C140.842 120.984 141.85 119.896 142.97 118.84C144.09 117.752 145.338 116.792 146.714 115.96C148.122 115.096 149.674 114.408 151.37 113.896C153.066 113.352 154.97 113.08 157.082 113.08C161.018 113.08 164.49 113.768 167.498 115.144C170.506 116.488 173.018 118.344 175.034 120.712C177.082 123.048 178.618 125.8 179.642 128.968C180.698 132.136 181.226 135.528 181.226 139.144V171.736C181.226 172.824 180.938 173.64 180.362 174.184C179.818 174.728 179.114 175 178.25 175H174.698C173.514 175 172.746 174.76 172.394 174.28C172.074 173.8 171.914 173 171.914 171.88V139.144C171.914 137.224 171.642 135.272 171.098 133.288C170.586 131.272 169.722 129.448 168.506 127.816C167.322 126.184 165.738 124.856 163.754 123.832C161.77 122.808 159.338 122.296 156.458 122.296C154.634 122.296 152.746 122.632 150.794 123.304C148.842 123.944 147.066 124.904 145.466 126.184C143.866 127.464 142.538 129.048 141.482 130.936C140.458 132.824 139.946 134.984 139.946 137.416V172.888C139.946 174.296 139.242 175 137.834 175H132.89C131.386 175 130.634 174.296 130.634 172.888V116.152C130.634 115.512 130.842 115 131.258 114.616C131.674 114.232 132.17 114.04 132.746 114.04H137.738C138.41 114.04 138.938 114.248 139.322 114.664C139.738 115.08 139.946 115.576 139.946 116.152V122.104ZM209.232 175.672C207.76 175.672 206.272 175.496 204.768 175.144C203.296 174.792 201.968 174.184 200.784 173.32C199.6 172.424 198.624 171.224 197.856 169.72C197.12 168.184 196.752 166.232 196.752 163.864V122.248H191.184C190.384 122.248 189.792 122.136 189.408 121.912C189.024 121.656 188.832 121.112 188.832 120.28V115.816C188.832 114.984 189.024 114.472 189.408 114.28C189.792 114.056 190.384 113.944 191.184 113.944H196.752V103.72C196.752 103.176 196.864 102.792 197.088 102.568C197.312 102.312 197.696 102.104 198.24 101.944C198.432 101.88 198.816 101.816 199.392 101.752C200 101.656 200.624 101.544 201.264 101.416C202.032 101.288 202.864 101.144 203.76 100.984C204.304 100.92 204.736 100.952 205.056 101.08C205.376 101.208 205.6 101.4 205.728 101.656C205.888 101.912 205.984 102.216 206.016 102.568C206.048 102.888 206.064 103.24 206.064 103.624V113.944H212.736C213.472 113.944 214 114.104 214.32 114.424C214.672 114.744 214.848 115.32 214.848 116.152V119.944C214.848 120.776 214.672 121.368 214.32 121.72C214 122.072 213.472 122.248 212.736 122.248H206.064V163.768C206.064 164.888 206.336 165.672 206.88 166.12C207.424 166.568 208.176 166.792 209.136 166.792C209.872 166.792 210.48 167.016 210.96 167.464C211.44 167.912 211.68 168.536 211.68 169.336V173.272C211.68 174.008 211.456 174.584 211.008 175C210.56 175.448 209.968 175.672 209.232 175.672ZM234.165 172.888C234.165 174.296 233.461 175 232.053 175H227.109C225.605 175 224.853 174.296 224.853 172.888V116.152C224.853 115.512 225.061 115 225.477 114.616C225.893 114.232 226.389 114.04 226.965 114.04H231.957C232.629 114.04 233.157 114.248 233.541 114.664C233.957 115.08 234.165 115.576 234.165 116.152V172.888ZM234.165 102.952C234.165 104.36 233.461 105.064 232.053 105.064H227.109C225.605 105.064 224.853 104.36 224.853 102.952V98.008C224.853 97.368 225.061 96.856 225.477 96.472C225.893 96.088 226.389 95.896 226.965 95.896H231.957C232.629 95.896 233.157 96.104 233.541 96.52C233.957 96.904 234.165 97.4 234.165 98.008V102.952ZM299.809 166.888C297.057 169.704 293.857 171.928 290.209 173.56C286.561 175.16 282.609 175.96 278.353 175.96C275.505 175.96 272.737 175.592 270.049 174.856C267.393 174.088 264.897 173.016 262.561 171.64C260.225 170.232 258.097 168.568 256.177 166.648C254.257 164.728 252.593 162.6 251.185 160.264C249.809 157.896 248.737 155.384 247.969 152.728C247.233 150.04 246.865 147.256 246.865 144.376C246.865 141.496 247.233 138.728 247.969 136.072C248.737 133.384 249.809 130.872 251.185 128.536C252.593 126.2 254.257 124.072 256.177 122.152C258.097 120.232 260.225 118.584 262.561 117.208C264.897 115.832 267.393 114.776 270.049 114.04C272.705 113.272 275.473 112.888 278.353 112.888C282.609 112.888 286.561 113.704 290.209 115.336C293.857 116.936 297.057 119.144 299.809 121.96V116.104C299.809 114.696 300.513 113.992 301.921 113.992H306.865C308.369 113.992 309.121 114.696 309.121 116.104V172.888C309.121 173.528 308.913 174.04 308.497 174.424C308.081 174.808 307.585 175 307.009 175H302.017C301.345 175 300.801 174.792 300.385 174.376C300.001 173.96 299.809 173.464 299.809 172.888V166.888ZM300.289 144.376C300.289 141.368 299.713 138.504 298.561 135.784C297.409 133.032 295.841 130.632 293.857 128.584C291.873 126.536 289.537 124.904 286.849 123.688C284.193 122.472 281.361 121.864 278.353 121.864C275.345 121.864 272.513 122.472 269.857 123.688C267.233 124.904 264.929 126.536 262.945 128.584C260.993 130.632 259.441 133.032 258.289 135.784C257.169 138.504 256.609 141.368 256.609 144.376C256.609 147.352 257.169 150.216 258.289 152.968C259.441 155.72 260.993 158.152 262.945 160.264C264.929 162.344 267.233 164.008 269.857 165.256C272.513 166.504 275.345 167.128 278.353 167.128C281.361 167.128 284.193 166.504 286.849 165.256C289.537 164.008 291.873 162.344 293.857 160.264C295.841 158.152 297.409 155.72 298.561 152.968C299.713 150.216 300.289 147.352 300.289 144.376ZM376.15 166.552C373.398 169.464 370.166 171.768 366.454 173.464C362.742 175.128 358.71 175.96 354.358 175.96C351.51 175.96 348.742 175.592 346.054 174.856C343.398 174.088 340.902 173.016 338.566 171.64C336.23 170.232 334.102 168.568 332.182 166.648C330.262 164.728 328.598 162.6 327.19 160.264C325.814 157.896 324.742 155.384 323.974 152.728C323.238 150.04 322.87 147.256 322.87 144.376C322.87 141.496 323.238 138.728 323.974 136.072C324.742 133.384 325.814 130.872 327.19 128.536C328.598 126.2 330.262 124.072 332.182 122.152C334.102 120.232 336.23 118.584 338.566 117.208C340.902 115.832 343.398 114.776 346.054 114.04C348.71 113.272 351.478 112.888 354.358 112.888C358.614 112.888 362.566 113.704 366.214 115.336C369.862 116.936 373.062 119.144 375.814 121.96V116.104C375.814 114.696 376.518 113.992 377.926 113.992L383.35 114.04C384.534 114.2 385.126 114.888 385.126 116.104V116.872V117.016V165.112C385.126 168.76 384.71 172.056 383.878 175C383.078 177.912 381.958 180.488 380.518 182.728C379.078 184.968 377.35 186.888 375.334 188.488C373.35 190.088 371.174 191.384 368.806 192.376C366.438 193.4 363.91 194.152 361.222 194.632C358.566 195.112 355.846 195.352 353.062 195.352C349.286 195.352 345.846 194.808 342.742 193.72C339.67 192.632 336.934 191.272 334.534 189.64C334.214 189.48 333.942 189.272 333.718 189.016C333.526 188.792 333.43 188.472 333.43 188.056C333.43 187.928 333.43 187.8 333.43 187.672C333.462 187.544 333.542 187.384 333.67 187.192L336.262 183.016C336.518 182.664 336.742 182.392 336.934 182.2C337.158 182.04 337.398 181.96 337.654 181.96C338.07 181.96 338.454 182.088 338.806 182.344C339.542 182.92 340.518 183.432 341.734 183.88C342.95 184.36 344.246 184.76 345.622 185.08C347.03 185.4 348.422 185.64 349.798 185.8C351.174 185.992 352.39 186.088 353.446 186.088C356.742 186.088 359.766 185.656 362.518 184.792C365.27 183.96 367.638 182.776 369.622 181.24C371.606 179.704 373.158 177.848 374.278 175.672C375.398 173.528 375.958 171.128 375.958 168.472L376.15 166.552ZM376.294 144.376C376.294 141.368 375.718 138.504 374.566 135.784C373.414 133.032 371.846 130.632 369.862 128.584C367.878 126.536 365.542 124.904 362.854 123.688C360.198 122.472 357.366 121.864 354.358 121.864C351.35 121.864 348.518 122.472 345.862 123.688C343.238 124.904 340.934 126.536 338.95 128.584C336.998 130.632 335.446 133.032 334.294 135.784C333.174 138.504 332.614 141.368 332.614 144.376C332.614 147.352 333.174 150.216 334.294 152.968C335.446 155.72 336.998 158.152 338.95 160.264C340.934 162.344 343.238 164.008 345.862 165.256C348.518 166.504 351.35 167.128 354.358 167.128C357.366 167.128 360.198 166.504 362.854 165.256C365.542 164.008 367.878 162.344 369.862 160.264C371.846 158.152 373.414 155.72 374.566 152.968C375.718 150.216 376.294 147.352 376.294 144.376ZM395.932 144.616C395.932 140.296 396.764 136.232 398.428 132.424C400.124 128.584 402.396 125.224 405.244 122.344C408.124 119.464 411.468 117.192 415.276 115.528C419.084 113.864 423.132 113.032 427.42 113.032C430.268 113.032 433.02 113.416 435.676 114.184C438.364 114.92 440.876 115.992 443.212 117.4C445.548 118.776 447.676 120.424 449.596 122.344C451.516 124.264 453.164 126.408 454.54 128.776C455.948 131.112 457.02 133.624 457.756 136.312C458.524 138.968 458.908 141.736 458.908 144.616C458.908 147.496 458.524 150.28 457.756 152.968C457.02 155.624 455.948 158.12 454.54 160.456C453.164 162.792 451.516 164.92 449.596 166.84C447.676 168.76 445.548 170.408 443.212 171.784C440.876 173.16 438.364 174.232 435.676 175C433.02 175.736 430.268 176.104 427.42 176.104C424.572 176.104 421.804 175.736 419.116 175C416.46 174.232 413.964 173.16 411.628 171.784C409.292 170.408 407.164 168.76 405.244 166.84C403.324 164.92 401.676 162.792 400.3 160.456C398.924 158.12 397.852 155.624 397.084 152.968C396.316 150.28 395.932 147.496 395.932 144.616ZM405.484 144.616C405.484 147.656 406.06 150.536 407.212 153.256C408.364 155.976 409.932 158.36 411.916 160.408C413.9 162.456 416.22 164.088 418.876 165.304C421.532 166.52 424.38 167.128 427.42 167.128C430.428 167.128 433.244 166.52 435.868 165.304C438.524 164.088 440.828 162.456 442.78 160.408C444.764 158.36 446.316 155.976 447.436 153.256C448.588 150.536 449.164 147.656 449.164 144.616C449.164 141.64 448.588 138.776 447.436 136.024C446.316 133.272 444.764 130.856 442.78 128.776C440.828 126.664 438.524 124.984 435.868 123.736C433.244 122.488 430.428 121.864 427.42 121.864C424.38 121.864 421.532 122.488 418.876 123.736C416.22 124.984 413.9 126.664 411.916 128.776C409.932 130.856 408.364 133.272 407.212 136.024C406.06 138.776 405.484 141.64 405.484 144.616Z" fill="#FDFCF3"/>
<path d="M17.136 44.144C18.032 43.024 18.992 41.984 20.016 41.024C21.04 40.032 22.176 39.168 23.424 38.432C24.704 37.696 26.144 37.12 27.744 36.704C29.344 36.288 31.2 36.08 33.312 36.08C38.368 36.08 42.496 37.024 45.696 38.912C48.896 40.768 51.456 43.488 53.376 47.072C54.272 45.056 55.424 43.344 56.832 41.936C58.272 40.528 59.872 39.392 61.632 38.528C63.424 37.632 65.328 36.992 67.344 36.608C69.392 36.224 71.472 36.032 73.584 36.032C77.52 36.032 80.992 36.72 84 38.096C87.008 39.44 89.52 41.296 91.536 43.664C93.584 46 95.12 48.752 96.144 51.92C97.2 55.088 97.728 58.48 97.728 62.096V94.688C97.728 95.776 97.44 96.592 96.864 97.136C96.32 97.68 95.616 97.952 94.752 97.952H91.2C90.016 97.952 89.248 97.712 88.896 97.232C88.576 96.752 88.416 95.952 88.416 94.832V62.096C88.416 60.176 88.144 58.224 87.6 56.24C87.088 54.224 86.224 52.4 85.008 50.768C83.824 49.136 82.24 47.808 80.256 46.784C78.272 45.76 75.84 45.248 72.96 45.248C70.528 45.248 68.352 45.632 66.432 46.4C64.512 47.168 62.88 48.288 61.536 49.76C60.224 51.2 59.216 52.976 58.512 55.088C57.808 57.168 57.456 59.52 57.456 62.144L57.456 94.736C57.456 95.824 57.168 96.64 56.592 97.184C56.048 97.728 55.344 98 54.48 98H50.928C49.744 98 48.976 97.76 48.624 97.28C48.304 96.8 48.144 96 48.144 94.88L48.144 62.144C48.144 60.224 47.872 58.272 47.328 56.288C46.816 54.272 45.952 52.448 44.736 50.816C43.552 49.184 41.968 47.856 39.984 46.832C38 45.808 35.568 45.296 32.688 45.296C30.864 45.296 29.024 45.632 27.168 46.304C25.312 46.944 23.632 47.904 22.128 49.184C20.656 50.464 19.456 52.048 18.528 53.936C17.6 55.824 17.136 57.984 17.136 60.416V95.888C17.136 97.296 16.432 98 15.024 98H10.08C8.576 98 7.824 97.296 7.824 95.888L7.824 39.152C7.824 38.512 8.032 38 8.448 37.616C8.864 37.232 9.36 37.04 9.936 37.04H14.928C15.6 37.04 16.128 37.248 16.512 37.664C16.928 38.08 17.136 38.576 17.136 39.152V44.144ZM120.634 95.888C120.634 97.296 119.93 98 118.522 98H113.578C112.074 98 111.322 97.296 111.322 95.888V39.152C111.322 38.512 111.53 38 111.946 37.616C112.362 37.232 112.858 37.04 113.434 37.04H118.426C119.098 37.04 119.626 37.248 120.01 37.664C120.426 38.08 120.634 38.576 120.634 39.152V95.888ZM120.634 25.952C120.634 27.36 119.93 28.064 118.522 28.064H113.578C112.074 28.064 111.322 27.36 111.322 25.952V21.008C111.322 20.368 111.53 19.856 111.946 19.472C112.362 19.088 112.858 18.896 113.434 18.896H118.426C119.098 18.896 119.626 19.104 120.01 19.52C120.426 19.904 120.634 20.4 120.634 21.008V25.952ZM178.262 84.128C178.486 83.936 178.726 83.744 178.982 83.552C179.27 83.328 179.558 83.168 179.846 83.072C180.166 82.976 180.47 82.976 180.758 83.072C181.078 83.168 181.398 83.424 181.718 83.84C182.358 84.704 182.87 85.408 183.254 85.952C183.67 86.496 184.006 86.928 184.262 87.248C184.518 87.6 184.71 87.856 184.838 88.016C184.998 88.272 185.126 88.528 185.222 88.784C185.35 89.04 185.382 89.328 185.318 89.648C185.254 89.936 185.078 90.272 184.79 90.656C184.534 91.008 184.118 91.408 183.542 91.856C182.166 92.944 180.726 93.936 179.222 94.832C177.75 95.696 176.198 96.448 174.566 97.088C172.934 97.728 171.206 98.224 169.382 98.576C167.59 98.928 165.686 99.104 163.67 99.104C160.822 99.104 158.07 98.736 155.414 98C152.758 97.232 150.246 96.16 147.878 94.784C145.542 93.376 143.398 91.712 141.446 89.792C139.526 87.872 137.862 85.744 136.454 83.408C135.046 81.072 133.958 78.576 133.19 75.92C132.422 73.232 132.038 70.448 132.038 67.568C132.038 64.688 132.422 61.92 133.19 59.264C133.958 56.576 135.046 54.064 136.454 51.728C137.862 49.392 139.526 47.264 141.446 45.344C143.398 43.424 145.542 41.776 147.878 40.4C150.246 38.992 152.758 37.92 155.414 37.184C158.07 36.416 160.822 36.032 163.67 36.032C165.462 36.032 167.238 36.208 168.998 36.56C170.79 36.88 172.502 37.344 174.134 37.952C175.798 38.528 177.35 39.216 178.79 40.016C180.262 40.816 181.574 41.68 182.726 42.608C182.95 42.8 183.206 43.024 183.494 43.28C183.814 43.504 184.07 43.776 184.262 44.096C184.486 44.384 184.63 44.72 184.694 45.104C184.758 45.456 184.678 45.84 184.454 46.256L180.95 50.864C180.118 51.952 179.158 51.936 178.07 50.816C177.206 49.92 176.214 49.12 175.094 48.416C173.974 47.68 172.774 47.056 171.494 46.544C170.214 46 168.886 45.584 167.51 45.296C166.134 45.008 164.774 44.864 163.43 44.864C160.614 44.864 157.894 45.472 155.27 46.688C152.646 47.904 150.326 49.552 148.31 51.632C146.294 53.712 144.678 56.128 143.462 58.88C142.246 61.632 141.638 64.528 141.638 67.568C141.638 70.64 142.23 73.552 143.414 76.304C144.63 79.024 146.246 81.408 148.262 83.456C150.278 85.504 152.598 87.136 155.222 88.352C157.878 89.536 160.63 90.128 163.478 90.128C165.238 90.128 166.822 89.968 168.23 89.648C169.67 89.296 170.966 88.848 172.118 88.304C173.302 87.728 174.39 87.088 175.382 86.384C176.374 85.648 177.334 84.896 178.262 84.128ZM300.214 84.032C300.502 83.776 300.806 83.536 301.126 83.312C301.478 83.088 301.83 82.976 302.182 82.976C302.662 82.976 303.126 83.264 303.574 83.84C304.214 84.704 304.726 85.408 305.11 85.952C305.526 86.496 305.862 86.928 306.118 87.248C306.374 87.6 306.566 87.856 306.694 88.016C306.854 88.208 306.982 88.416 307.078 88.64C307.174 88.832 307.222 89.056 307.222 89.312C307.222 89.664 307.078 90.048 306.79 90.464C306.534 90.848 306.07 91.312 305.398 91.856C304.022 92.944 302.582 93.936 301.078 94.832C299.606 95.696 298.054 96.448 296.422 97.088C294.79 97.728 293.062 98.224 291.238 98.576C289.446 98.928 287.542 99.104 285.526 99.104C282.678 99.104 279.926 98.736 277.27 98C274.614 97.232 272.102 96.16 269.734 94.784C267.398 93.376 265.254 91.712 263.302 89.792C261.382 87.872 259.718 85.744 258.31 83.408C256.902 81.072 255.814 78.576 255.046 75.92C254.278 73.232 253.894 70.448 253.894 67.568C253.894 64.688 254.246 61.904 254.95 59.216C255.686 56.528 256.71 54.016 258.022 51.68C259.366 49.344 260.982 47.216 262.87 45.296C264.758 43.376 266.87 41.728 269.206 40.352C271.574 38.976 274.118 37.92 276.838 37.184C279.59 36.416 282.486 36.032 285.526 36.032C287.926 36.032 290.31 36.304 292.678 36.848C295.046 37.392 297.318 38.192 299.494 39.248C301.67 40.272 303.702 41.552 305.59 43.088C307.51 44.624 309.222 46.384 310.726 48.368C312.774 51.12 314.294 54.256 315.286 57.776C316.278 61.296 316.742 65.344 316.678 69.92C316.678 71.424 315.974 72.176 314.566 72.176H263.974C264.518 74.736 265.462 77.104 266.806 79.28C268.182 81.456 269.814 83.36 271.702 84.992C273.622 86.592 275.75 87.856 278.086 88.784C280.422 89.68 282.838 90.128 285.334 90.128C287.094 90.128 288.678 89.968 290.086 89.648C291.526 89.296 292.822 88.848 293.974 88.304C295.158 87.728 296.246 87.088 297.238 86.384C298.23 85.648 299.19 84.896 300.118 84.128L300.214 84.032ZM273.91 48.512C271.478 50.144 269.382 52.208 267.622 54.704C265.862 57.168 264.662 59.888 264.022 62.864H307.414C307.062 60.208 306.23 57.792 304.918 55.616C303.638 53.44 302.022 51.584 300.07 50.048C298.118 48.512 295.91 47.328 293.446 46.496C291.014 45.632 288.486 45.2 285.862 45.2C283.782 45.2 281.718 45.472 279.67 46.016C277.654 46.56 275.734 47.392 273.91 48.512ZM338.836 95.888C338.836 97.296 338.132 98 336.724 98H331.78C330.276 98 329.524 97.296 329.524 95.888V21.056C329.524 20.416 329.732 19.904 330.148 19.52C330.564 19.136 331.06 18.944 331.636 18.944H336.628C337.3 18.944 337.828 19.152 338.212 19.568C338.628 19.984 338.836 20.48 338.836 21.056V95.888Z" fill="#FDFCF3"/>
<path d="M247.654 86.6701L218.645 47L194.654 86.6701L190.154 78.6701L218.645 36.1118L249.654 78.6701L247.654 86.6701Z" fill="#C0FF3B"/>
<path d="M19.75 18H15.6V17.1C14.625 17.9 13.35 18.3 12.05 18.3C8.625 18.3 6.125 15.65 6.125 12.575C6.125 9.55 8.525 6.8 11.95 6.8C13.275 6.8 14.625 7.2 15.55 8.025V4.8H12.575V2.475H17.85V15.675H19.75V18ZM15.55 12.6C15.55 12 15.425 11.4 15.2 10.9C14.775 9.875 13.375 9.125 12.1 9.125C10.025 9.125 8.45 10.575 8.45 12.525C8.45 14.475 10.075 15.975 12 15.975C12.825 15.975 15.55 15.575 15.55 12.6ZM33.9652 16.475C32.1902 17.525 29.9902 18.3 27.8152 18.3C23.7152 18.3 21.6152 15.575 21.6152 12.625C21.6152 8.775 24.8902 6.825 27.7652 6.825C30.9152 6.825 33.5402 8.9 33.5402 11.95C33.5402 12.475 33.4902 13.35 33.4652 13.6H23.9402C24.0652 14.45 24.8652 16 27.8152 16C29.6402 16 31.3902 15.35 32.9152 14.575L33.9652 16.475ZM31.2902 11.275L31.1902 10.9C30.5402 9.525 29.0402 9.15 27.6402 9.15C26.1902 9.15 24.6152 9.825 24.1152 11.275H31.2902ZM49.6805 9.475H47.6555L43.5055 18H41.6055L37.3305 9.475H35.2805V7.15H41.4555V9.475H39.8555L42.6055 15.1L45.3555 9.475H43.9055V7.15H49.6805V9.475Z" fill="white"/>
<path d="M59.8457 16.25C59.8457 17.375 58.8457 18.3 57.5457 18.3C55.7457 18.3 55.1207 16.925 55.1207 16.275C55.1207 15.225 56.0457 14.175 57.4957 14.175C59.0457 14.175 59.8457 15.275 59.8457 16.25Z" fill="#C0FF3B"/>
</svg>
