<svg width="476" height="122" viewBox="0 0 476 122" fill="none" xmlns="http://www.w3.org/2000/svg">
<path d="M17.136 44.144C18.032 43.024 18.992 41.984 20.016 41.024C21.04 40.032 22.176 39.168 23.424 38.432C24.704 37.696 26.144 37.12 27.744 36.704C29.344 36.288 31.2 36.08 33.312 36.08C38.368 36.08 42.496 37.024 45.696 38.912C48.896 40.768 51.456 43.488 53.376 47.072C54.272 45.056 55.424 43.344 56.832 41.936C58.272 40.528 59.872 39.392 61.632 38.528C63.424 37.632 65.328 36.992 67.344 36.608C69.392 36.224 71.472 36.032 73.584 36.032C77.52 36.032 80.992 36.72 84 38.096C87.008 39.44 89.52 41.296 91.536 43.664C93.584 46 95.12 48.752 96.144 51.92C97.2 55.088 97.728 58.48 97.728 62.096V94.688C97.728 95.776 97.44 96.592 96.864 97.136C96.32 97.68 95.616 97.952 94.752 97.952H91.2C90.016 97.952 89.248 97.712 88.896 97.232C88.576 96.752 88.416 95.952 88.416 94.832V62.096C88.416 60.176 88.144 58.224 87.6 56.24C87.088 54.224 86.224 52.4 85.008 50.768C83.824 49.136 82.24 47.808 80.256 46.784C78.272 45.76 75.84 45.248 72.96 45.248C70.528 45.248 68.352 45.632 66.432 46.4C64.512 47.168 62.88 48.288 61.536 49.76C60.224 51.2 59.216 52.976 58.512 55.088C57.808 57.168 57.456 59.52 57.456 62.144L57.456 94.736C57.456 95.824 57.168 96.64 56.592 97.184C56.048 97.728 55.344 98 54.48 98H50.928C49.744 98 48.976 97.76 48.624 97.28C48.304 96.8 48.144 96 48.144 94.88L48.144 62.144C48.144 60.224 47.872 58.272 47.328 56.288C46.816 54.272 45.952 52.448 44.736 50.816C43.552 49.184 41.968 47.856 39.984 46.832C38 45.808 35.568 45.296 32.688 45.296C30.864 45.296 29.024 45.632 27.168 46.304C25.312 46.944 23.632 47.904 22.128 49.184C20.656 50.464 19.456 52.048 18.528 53.936C17.6 55.824 17.136 57.984 17.136 60.416V95.888C17.136 97.296 16.432 98 15.024 98H10.08C8.576 98 7.824 97.296 7.824 95.888L7.824 39.152C7.824 38.512 8.032 38 8.448 37.616C8.864 37.232 9.36 37.04 9.936 37.04H14.928C15.6 37.04 16.128 37.248 16.512 37.664C16.928 38.08 17.136 38.576 17.136 39.152V44.144ZM120.634 95.888C120.634 97.296 119.93 98 118.522 98H113.578C112.074 98 111.322 97.296 111.322 95.888V39.152C111.322 38.512 111.53 38 111.946 37.616C112.362 37.232 112.858 37.04 113.434 37.04H118.426C119.098 37.04 119.626 37.248 120.01 37.664C120.426 38.08 120.634 38.576 120.634 39.152V95.888ZM120.634 25.952C120.634 27.36 119.93 28.064 118.522 28.064H113.578C112.074 28.064 111.322 27.36 111.322 25.952V21.008C111.322 20.368 111.53 19.856 111.946 19.472C112.362 19.088 112.858 18.896 113.434 18.896H118.426C119.098 18.896 119.626 19.104 120.01 19.52C120.426 19.904 120.634 20.4 120.634 21.008V25.952ZM178.262 84.128C178.486 83.936 178.726 83.744 178.982 83.552C179.27 83.328 179.558 83.168 179.846 83.072C180.166 82.976 180.47 82.976 180.758 83.072C181.078 83.168 181.398 83.424 181.718 83.84C182.358 84.704 182.87 85.408 183.254 85.952C183.67 86.496 184.006 86.928 184.262 87.248C184.518 87.6 184.71 87.856 184.838 88.016C184.998 88.272 185.126 88.528 185.222 88.784C185.35 89.04 185.382 89.328 185.318 89.648C185.254 89.936 185.078 90.272 184.79 90.656C184.534 91.008 184.118 91.408 183.542 91.856C182.166 92.944 180.726 93.936 179.222 94.832C177.75 95.696 176.198 96.448 174.566 97.088C172.934 97.728 171.206 98.224 169.382 98.576C167.59 98.928 165.686 99.104 163.67 99.104C160.822 99.104 158.07 98.736 155.414 98C152.758 97.232 150.246 96.16 147.878 94.784C145.542 93.376 143.398 91.712 141.446 89.792C139.526 87.872 137.862 85.744 136.454 83.408C135.046 81.072 133.958 78.576 133.19 75.92C132.422 73.232 132.038 70.448 132.038 67.568C132.038 64.688 132.422 61.92 133.19 59.264C133.958 56.576 135.046 54.064 136.454 51.728C137.862 49.392 139.526 47.264 141.446 45.344C143.398 43.424 145.542 41.776 147.878 40.4C150.246 38.992 152.758 37.92 155.414 37.184C158.07 36.416 160.822 36.032 163.67 36.032C165.462 36.032 167.238 36.208 168.998 36.56C170.79 36.88 172.502 37.344 174.134 37.952C175.798 38.528 177.35 39.216 178.79 40.016C180.262 40.816 181.574 41.68 182.726 42.608C182.95 42.8 183.206 43.024 183.494 43.28C183.814 43.504 184.07 43.776 184.262 44.096C184.486 44.384 184.63 44.72 184.694 45.104C184.758 45.456 184.678 45.84 184.454 46.256L180.95 50.864C180.118 51.952 179.158 51.936 178.07 50.816C177.206 49.92 176.214 49.12 175.094 48.416C173.974 47.68 172.774 47.056 171.494 46.544C170.214 46 168.886 45.584 167.51 45.296C166.134 45.008 164.774 44.864 163.43 44.864C160.614 44.864 157.894 45.472 155.27 46.688C152.646 47.904 150.326 49.552 148.31 51.632C146.294 53.712 144.678 56.128 143.462 58.88C142.246 61.632 141.638 64.528 141.638 67.568C141.638 70.64 142.23 73.552 143.414 76.304C144.63 79.024 146.246 81.408 148.262 83.456C150.278 85.504 152.598 87.136 155.222 88.352C157.878 89.536 160.63 90.128 163.478 90.128C165.238 90.128 166.822 89.968 168.23 89.648C169.67 89.296 170.966 88.848 172.118 88.304C173.302 87.728 174.39 87.088 175.382 86.384C176.374 85.648 177.334 84.896 178.262 84.128ZM300.214 84.032C300.502 83.776 300.806 83.536 301.126 83.312C301.478 83.088 301.83 82.976 302.182 82.976C302.662 82.976 303.126 83.264 303.574 83.84C304.214 84.704 304.726 85.408 305.11 85.952C305.526 86.496 305.862 86.928 306.118 87.248C306.374 87.6 306.566 87.856 306.694 88.016C306.854 88.208 306.982 88.416 307.078 88.64C307.174 88.832 307.222 89.056 307.222 89.312C307.222 89.664 307.078 90.048 306.79 90.464C306.534 90.848 306.07 91.312 305.398 91.856C304.022 92.944 302.582 93.936 301.078 94.832C299.606 95.696 298.054 96.448 296.422 97.088C294.79 97.728 293.062 98.224 291.238 98.576C289.446 98.928 287.542 99.104 285.526 99.104C282.678 99.104 279.926 98.736 277.27 98C274.614 97.232 272.102 96.16 269.734 94.784C267.398 93.376 265.254 91.712 263.302 89.792C261.382 87.872 259.718 85.744 258.31 83.408C256.902 81.072 255.814 78.576 255.046 75.92C254.278 73.232 253.894 70.448 253.894 67.568C253.894 64.688 254.246 61.904 254.95 59.216C255.686 56.528 256.71 54.016 258.022 51.68C259.366 49.344 260.982 47.216 262.87 45.296C264.758 43.376 266.87 41.728 269.206 40.352C271.574 38.976 274.118 37.92 276.838 37.184C279.59 36.416 282.486 36.032 285.526 36.032C287.926 36.032 290.31 36.304 292.678 36.848C295.046 37.392 297.318 38.192 299.494 39.248C301.67 40.272 303.702 41.552 305.59 43.088C307.51 44.624 309.222 46.384 310.726 48.368C312.774 51.12 314.294 54.256 315.286 57.776C316.278 61.296 316.742 65.344 316.678 69.92C316.678 71.424 315.974 72.176 314.566 72.176H263.974C264.518 74.736 265.462 77.104 266.806 79.28C268.182 81.456 269.814 83.36 271.702 84.992C273.622 86.592 275.75 87.856 278.086 88.784C280.422 89.68 282.838 90.128 285.334 90.128C287.094 90.128 288.678 89.968 290.086 89.648C291.526 89.296 292.822 88.848 293.974 88.304C295.158 87.728 296.246 87.088 297.238 86.384C298.23 85.648 299.19 84.896 300.118 84.128L300.214 84.032ZM273.91 48.512C271.478 50.144 269.382 52.208 267.622 54.704C265.862 57.168 264.662 59.888 264.022 62.864H307.414C307.062 60.208 306.23 57.792 304.918 55.616C303.638 53.44 302.022 51.584 300.07 50.048C298.118 48.512 295.91 47.328 293.446 46.496C291.014 45.632 288.486 45.2 285.862 45.2C283.782 45.2 281.718 45.472 279.67 46.016C277.654 46.56 275.734 47.392 273.91 48.512ZM338.836 95.888C338.836 97.296 338.132 98 336.724 98H331.78C330.276 98 329.524 97.296 329.524 95.888V21.056C329.524 20.416 329.732 19.904 330.148 19.52C330.564 19.136 331.06 18.944 331.636 18.944H336.628C337.3 18.944 337.828 19.152 338.212 19.568C338.628 19.984 338.836 20.48 338.836 21.056V95.888Z" fill="#FDFCF3"/>
<path d="M247.654 86.6701L218.645 47L194.654 86.6701L190.154 78.6701L218.645 36.1118L249.654 78.6701L247.654 86.6701Z" fill="#C0FF3B"/>
</svg>
